<svg width="72" height="72" viewBox="0 0 72 72" fill="none" xmlns="http://www.w3.org/2000/svg">
<rect x="0.5" y="0.5" width="71" height="71" rx="35.5" fill="#ED544E"/>
<rect x="0.5" y="0.5" width="71" height="71" rx="35.5" fill="white" fill-opacity="0.94"/>
<rect x="0.5" y="0.5" width="71" height="71" rx="35.5" stroke="#ED544E"/>
<rect x="0.5" y="0.5" width="71" height="71" rx="35.5" stroke="white" stroke-opacity="0.8"/>
<path d="M50 26V48C50 52.4183 46.4183 56 42 56H30C25.5817 56 22 52.4183 22 48V26H50ZM32 32.5C31.1716 32.5 30.5 33.1716 30.5 34V48C30.5 48.8284 31.1716 49.5 32 49.5C32.8284 49.5 33.5 48.8284 33.5 48V34C33.5 33.1716 32.8284 32.5 32 32.5ZM40 32.5C39.1716 32.5 38.5 33.1716 38.5 34V48C38.5 48.8284 39.1716 49.5 40 49.5C40.8284 49.5 41.5 48.8284 41.5 48V34C41.5 33.1716 40.8284 32.5 40 32.5ZM37.8594 16C39.1967 16 40.4457 16.6685 41.1875 17.7812L43 20.5H50.5C51.3284 20.5 52 21.1716 52 22C52 22.8284 51.3284 23.5 50.5 23.5H21.5C20.6716 23.5 20 22.8284 20 22C20 21.1716 20.6716 20.5 21.5 20.5H29L30.8125 17.7812C31.5543 16.6685 32.8033 16 34.1406 16H37.8594Z" fill="#EB3D4D"/>
</svg>
