<svg width="28" height="28" viewBox="0 0 28 28" fill="none" xmlns="http://www.w3.org/2000/svg">
<path d="M14.125 0.5C21.5808 0.5 27.625 6.54416 27.625 14C27.625 21.4558 21.5808 27.5 14.125 27.5C6.66916 27.5 0.625 21.4558 0.625 14C0.625 6.54416 6.66916 0.5 14.125 0.5ZM19.3223 6.125C18.701 6.12502 18.1973 6.62869 18.1973 7.25V8.15332C17.0434 7.34822 15.6397 6.875 14.125 6.875C10.19 6.875 7 10.065 7 14C7 17.935 10.19 21.125 14.125 21.125C17.4465 21.125 20.2345 18.8531 21.0254 15.7803C21.1802 15.1787 20.8183 14.5651 20.2168 14.4102C19.6151 14.2553 19.0015 14.618 18.8467 15.2197C18.3054 17.3225 16.395 18.875 14.125 18.875C11.4326 18.875 9.25 16.6924 9.25 14C9.25 11.3076 11.4326 9.125 14.125 9.125C15.3596 9.125 16.4879 9.58381 17.3477 10.3418L16.0977 10.6602C15.4955 10.8134 15.1319 11.4252 15.2852 12.0273C15.4384 12.6295 16.0502 12.9931 16.6523 12.8398L19.5996 12.0898C20.0982 11.963 20.4473 11.5145 20.4473 11V7.25C20.4473 6.62868 19.9436 6.125 19.3223 6.125Z" fill="#9CADA6"/>
</svg>
