<svg width="137" height="137" viewBox="0 0 137 137" fill="none" xmlns="http://www.w3.org/2000/svg">
<path d="M136.65 68.5C136.65 107.585 103.774 138.969 64.1572 136.516C30.2138 134.413 2.58721 106.786 0.486314 72.8428C-1.96944 33.2265 29.4148 0.349953 68.5 0.349953C78.8771 0.332143 89.1198 2.69664 98.439 7.2613C100.862 8.4504 101.75 11.4678 100.413 13.8131L100.404 13.8296C99.8083 14.8703 98.8374 15.6439 97.69 15.9918C96.5425 16.3396 95.3055 16.2352 94.2325 15.7002C85.2602 11.2822 75.0025 9.1319 64.176 9.90505C35.741 11.9331 12.5183 34.7399 9.98736 63.1349C6.83836 98.4766 35.1606 128.141 70.0604 127.229C99.9477 126.449 124.895 102.747 127.083 72.9297C127.653 65.4463 126.777 57.9232 124.501 50.7716C124.164 49.7096 124.219 48.5623 124.656 47.5374C125.092 46.5124 125.88 45.6774 126.879 45.1833C129.45 43.8978 132.601 45.1833 133.473 47.921C135.585 54.5762 136.658 61.5177 136.65 68.5Z" fill="#DD4752"/>
<path d="M134.058 23.2625C125.903 27.7275 117.892 32.4745 110.419 38.0675C97.6823 47.4205 85.9581 58.113 75.1951 69.6985C77.0751 72.3775 79.1196 74.9155 81.3051 77.336C81.9866 78.182 83.4906 79.7565 84.3131 80.4615C88.3081 84.6445 93.0786 87.9345 97.8961 91.0835C101.304 92.987 102.455 97.405 100.317 100.695C99.3539 102.159 97.8608 103.193 96.1514 103.578C94.4421 103.964 92.6498 103.672 91.1516 102.763C84.5246 98.8385 78.2736 94.2325 72.777 88.804C70.2361 86.2011 67.8282 83.4716 65.5625 80.626C63.8705 82.6705 62.202 84.715 60.557 86.783C57.6769 90.4136 54.9257 94.1446 52.3085 97.969C46.0575 106.5 33.4403 97.4755 39.6185 88.804C45.188 81.754 51.063 74.9625 57.2646 68.4765C51.6481 58.9355 47.5356 48.5015 45.1386 37.6445C43.4466 27.422 58.2986 24.8135 60.1551 35.036C61.7766 42.8615 64.4321 50.546 68.0276 57.784C79.2371 47.2325 91.3138 37.6445 104.239 29.1375C112.393 23.6855 121.133 19.1265 129.992 14.8965C132.295 13.792 135.092 14.779 136.196 17.082C137.301 19.385 136.314 22.1345 134.058 23.2625Z" fill="#DD4752"/>
</svg>
