<svg width="24" height="24" viewBox="0 0 24 24" fill="none" xmlns="http://www.w3.org/2000/svg">
<path d="M8 16C9.10457 16 10 16.8954 10 18C10 19.1046 9.10457 20 8 20C7.1608 20 6.44327 19.4828 6.14648 18.75H3C2.58579 18.75 2.25 18.4142 2.25 18C2.25 17.5858 2.58579 17.25 3 17.25H6.14648C6.44327 16.5172 7.1608 16 8 16ZM20 17.25C20.4142 17.25 20.75 17.5858 20.75 18C20.75 18.4142 20.4142 18.75 20 18.75H12C11.5858 18.75 11.25 18.4142 11.25 18C11.25 17.5858 11.5858 17.25 12 17.25H20ZM17 10C17.8392 10 18.5567 10.5172 18.8535 11.25H21C21.4142 11.25 21.75 11.5858 21.75 12C21.75 12.4142 21.4142 12.75 21 12.75H18.8535C18.5567 13.4828 17.8392 14 17 14C15.8954 14 15 13.1046 15 12C15 10.8954 15.8954 10 17 10ZM13 11.25C13.4142 11.25 13.75 11.5858 13.75 12C13.75 12.4142 13.4142 12.75 13 12.75H3C2.58579 12.75 2.25 12.4142 2.25 12C2.25 11.5858 2.58579 11.25 3 11.25H13ZM12 4C12.8392 4 13.5567 4.51725 13.8535 5.25H21C21.4142 5.25 21.75 5.58579 21.75 6C21.75 6.41421 21.4142 6.75 21 6.75H13.8535C13.5567 7.48275 12.8392 8 12 8C11.1608 8 10.4433 7.48275 10.1465 6.75H3C2.58579 6.75 2.25 6.41421 2.25 6C2.25 5.58579 2.58579 5.25 3 5.25H10.1465C10.4433 4.51725 11.1608 4 12 4Z" fill="#1D1F2C"/>
</svg>
