<svg width="29" height="28" viewBox="0 0 29 28" fill="none" xmlns="http://www.w3.org/2000/svg">
<path d="M9.74792 25.6666H19.5021C22.1956 25.6666 24.3791 23.5829 24.3791 21.0125V15.3218C24.3791 14.4955 24.7231 13.7031 25.3354 13.1188C26.7539 11.7652 26.5695 9.52231 24.9471 8.39632L17.4936 3.22341C15.7834 2.03653 13.4666 2.03653 11.7564 3.22341L4.30292 8.39632C2.68051 9.52231 2.4961 11.7652 3.91463 13.1188C4.52688 13.7031 4.87084 14.4955 4.87084 15.3218V21.0125C4.87084 23.5829 7.05438 25.6666 9.74792 25.6666Z" stroke="#4A4C56" stroke-width="1.5"/>
<path d="M16.9583 18.6666C16.9583 19.9552 15.9137 20.9999 14.625 20.9999C13.3363 20.9999 12.2917 19.9552 12.2917 18.6666C12.2917 17.3779 13.3363 16.3333 14.625 16.3333C15.9137 16.3333 16.9583 17.3779 16.9583 18.6666Z" stroke="#4A4C56" stroke-width="1.5"/>
</svg>
