<svg width="33" height="32" viewBox="0 0 33 32" fill="none" xmlns="http://www.w3.org/2000/svg">
<path fill-rule="evenodd" clip-rule="evenodd" d="M27.7727 24.0143C27.7727 26.9519 25.2772 29.3333 22.1989 29.3333H11.0513C7.97295 29.3333 5.47748 26.9519 5.47748 24.0143V17.5107C5.47748 16.5664 5.08438 15.6607 4.38467 14.993C2.76349 13.446 2.97424 10.8827 4.82842 9.59585L13.3467 3.68395C15.3012 2.32752 17.949 2.32752 19.9034 3.68395L28.4217 9.59585C30.2759 10.8827 30.4867 13.446 28.8655 14.993C28.1658 15.6607 27.7727 16.5664 27.7727 17.5107V24.0143ZM16.6251 24C18.0978 24 19.2917 22.8061 19.2917 21.3333C19.2917 19.8605 18.0978 18.6666 16.6251 18.6666C15.1523 18.6666 13.9584 19.8605 13.9584 21.3333C13.9584 22.8061 15.1523 24 16.6251 24Z" fill="#9CADA6"/>
</svg>
