<svg width="150" height="180" viewBox="0 0 150 180" fill="none" xmlns="http://www.w3.org/2000/svg">
<rect width="150" height="180" rx="75" fill="white"/>
<path d="M47.3816 88C47.3816 88 26.273 36.2392 47.3816 32.5144C51.065 31.8645 53.2834 31.8045 56.956 32.5144C70.2511 35.0844 77.5041 60.7413 77.5041 60.7413H72.9378C72.9378 60.7413 79.8563 35.1048 93.044 32.5144C96.7145 31.7935 98.935 31.8645 102.618 32.5144C123.727 36.2392 102.618 88 102.618 88H92.5285V44.0584L96.4319 45.0266L75.5892 73.1045H74.4108L54.0837 45.0266L57.3979 44.0584V88H47.3816Z" fill="#4B4B4B"/>
<path d="M34.464 137V113.16H37.984L46.944 125.576H45.184L53.984 113.16H57.504V137H53.76V117.608L55.168 117.992L46.176 130.28H45.792L36.992 117.992L38.24 117.608V137H34.464ZM70.5928 137.384C68.9288 137.384 67.4034 136.989 66.0168 136.2C64.6514 135.411 63.5634 134.333 62.7527 132.968C61.9421 131.603 61.5367 130.056 61.5367 128.328C61.5367 126.579 61.9421 125.032 62.7527 123.688C63.5634 122.323 64.6514 121.256 66.0168 120.488C67.3821 119.699 68.9074 119.304 70.5928 119.304C72.2994 119.304 73.8248 119.699 75.1688 120.488C76.5341 121.256 77.6114 122.323 78.4008 123.688C79.2114 125.032 79.6168 126.579 79.6168 128.328C79.6168 130.077 79.2114 131.635 78.4008 133C77.5901 134.365 76.5021 135.443 75.1368 136.232C73.7714 137 72.2568 137.384 70.5928 137.384ZM70.5928 134.024C71.6168 134.024 72.5234 133.779 73.3128 133.288C74.1021 132.797 74.7208 132.125 75.1688 131.272C75.6381 130.397 75.8728 129.416 75.8728 128.328C75.8728 127.24 75.6381 126.269 75.1688 125.416C74.7208 124.563 74.1021 123.891 73.3128 123.4C72.5234 122.909 71.6168 122.664 70.5928 122.664C69.5901 122.664 68.6834 122.909 67.8728 123.4C67.0834 123.891 66.4541 124.563 65.9848 125.416C65.5367 126.269 65.3127 127.24 65.3127 128.328C65.3127 129.416 65.5367 130.397 65.9848 131.272C66.4541 132.125 67.0834 132.797 67.8728 133.288C68.6834 133.779 69.5901 134.024 70.5928 134.024ZM83.307 137V119.688H86.763V123.176L86.443 122.664C86.827 121.533 87.4457 120.723 88.299 120.232C89.1523 119.72 90.1763 119.464 91.371 119.464H92.427V122.76H90.923C89.7283 122.76 88.7577 123.133 88.011 123.88C87.2857 124.605 86.923 125.651 86.923 127.016V137H83.307ZM101.461 137.384C99.6901 137.384 98.1327 136.947 96.7887 136.072C95.4661 135.197 94.5381 134.024 94.0047 132.552L96.7887 131.24C97.2581 132.221 97.8981 133 98.7087 133.576C99.5407 134.152 100.458 134.44 101.461 134.44C102.314 134.44 103.007 134.248 103.541 133.864C104.074 133.48 104.341 132.957 104.341 132.296C104.341 131.869 104.223 131.528 103.989 131.272C103.754 130.995 103.455 130.771 103.093 130.6C102.751 130.429 102.399 130.301 102.037 130.216L99.3168 129.448C97.8234 129.021 96.7034 128.381 95.9567 127.528C95.2314 126.653 94.8687 125.64 94.8687 124.488C94.8687 123.443 95.1354 122.536 95.6687 121.768C96.2021 120.979 96.9381 120.371 97.8767 119.944C98.8154 119.517 99.8714 119.304 101.045 119.304C102.623 119.304 104.031 119.699 105.269 120.488C106.506 121.256 107.381 122.333 107.893 123.72L105.109 125.032C104.767 124.2 104.223 123.539 103.477 123.048C102.751 122.557 101.93 122.312 101.013 122.312C100.223 122.312 99.5941 122.504 99.1247 122.888C98.6554 123.251 98.4207 123.731 98.4207 124.328C98.4207 124.733 98.5274 125.075 98.7407 125.352C98.9541 125.608 99.2314 125.821 99.5728 125.992C99.9141 126.141 100.266 126.269 100.629 126.376L103.445 127.208C104.874 127.613 105.973 128.253 106.741 129.128C107.509 129.981 107.893 131.005 107.893 132.2C107.893 133.224 107.615 134.131 107.061 134.92C106.527 135.688 105.781 136.296 104.821 136.744C103.861 137.171 102.741 137.384 101.461 137.384ZM111.596 137V112.776H115.212V137H111.596Z" fill="#4B4B4B"/>
</svg>
