<svg width="163" height="156" viewBox="0 0 163 156" fill="none" xmlns="http://www.w3.org/2000/svg">
<path d="M153.027 55.9911C147.671 55.9911 143.18 60.0862 143.18 65.3276V78.9232C143.18 111.187 115.534 137.393 81.5 137.393C47.4657 137.393 19.8203 111.187 19.8203 78.9216C19.8203 46.8202 47.4657 20.6147 81.327 20.6147H94.4577C99.8138 20.6147 104.307 16.5212 104.307 11.2798C104.307 6.03836 99.9868 1.94492 94.4577 1.94492H81.5C36.5788 1.78092 0.297241 36.339 0.297241 78.9216C0.297241 121.342 36.7518 155.9 81.5 155.9C126.248 155.9 162.703 121.342 162.703 78.9216V65.3276C162.703 60.2502 158.383 55.9911 153.027 55.9911Z" fill="#33CC33"/>
<path d="M64.3955 55.9912C61.6309 52.8801 56.7939 52.2257 52.9931 54.3544C48.8462 56.8112 47.464 62.0526 50.0555 65.982L71.6528 101.36C72.5161 102.672 73.7254 103.817 75.1076 104.799C80.4637 108.24 87.7193 106.93 91.5202 101.852L91.8662 101.36L154.063 13.4086C156.655 9.80548 155.964 4.72804 152.164 1.94496C148.363 -1.00376 142.661 -0.349401 139.725 3.41768L81.327 74.1722L64.3955 55.9912Z" fill="#33CC33"/>
</svg>
