<svg width="101" height="66" viewBox="0 0 101 66" fill="none" xmlns="http://www.w3.org/2000/svg">
<g clip-path="url(#clip0_4260_842)">
<path d="M50.5 0C41.6776 0 34.5 7.1776 34.5 16C34.5 24.8224 41.6776 32 50.5 32C59.3224 32 66.5 24.8224 66.5 16C66.5 7.1776 59.3225 0 50.5 0ZM50.5 29.0909C43.2817 29.0909 37.4091 23.2184 37.4091 16C37.4091 8.78157 43.2817 2.90909 50.5 2.90909C57.7183 2.90909 63.5909 8.78167 63.5909 16C63.5909 23.2183 57.7183 29.0909 50.5 29.0909Z" fill="#A5A5AB"/>
<path d="M50.4998 17.4373C50.4998 17.4373 50.4999 17.4373 50.4998 17.4373C48.2465 17.4373 46.1278 18.3149 44.5345 19.9083C43.9664 20.4763 43.9664 21.3973 44.5345 21.9653C44.8185 22.2493 45.1908 22.3914 45.563 22.3914C45.9353 22.3914 46.3076 22.2493 46.5915 21.9653C47.6355 20.9213 49.0235 20.3465 50.4998 20.3465C51.9762 20.3465 53.3642 20.9214 54.4082 21.9653C54.9762 22.5333 55.8972 22.5333 56.4652 21.9653C57.0333 21.3974 57.0333 20.4764 56.4652 19.9083C54.8718 18.3149 52.7533 17.4373 50.4998 17.4373ZM45.665 14.2681C46.0267 13.9073 46.2333 13.407 46.2333 12.8969C46.2333 12.3869 46.0267 11.8865 45.665 11.5257C45.3043 11.165 44.8039 10.9575 44.2939 10.9575C43.7829 10.9575 43.2835 11.165 42.9227 11.5257C42.562 11.8865 42.3545 12.3869 42.3545 12.8969C42.3545 13.407 42.562 13.9073 42.9227 14.2681C43.2835 14.6288 43.7838 14.8363 44.2939 14.8363C44.8039 14.8363 45.3043 14.6288 45.665 14.2681ZM56.706 10.9575C56.195 10.9575 55.6956 11.165 55.3349 11.5257C54.9732 11.8865 54.7666 12.3869 54.7666 12.8969C54.7666 13.407 54.9732 13.9073 55.3349 14.2681C55.6956 14.6288 56.1959 14.8363 56.706 14.8363C57.2161 14.8363 57.7164 14.6287 58.0772 14.2681C58.4389 13.9073 58.6454 13.407 58.6454 12.8969C58.6454 12.3869 58.4389 11.8865 58.0772 11.5257C57.7164 11.165 57.2161 10.9575 56.706 10.9575Z" fill="#A5A5AB"/>
</g>
<path d="M10.836 60H9.012L3.524 51.696V60H1.7V48.864H3.524L9.012 57.152V48.864H10.836V60ZM17.0553 60.144C16.2233 60.144 15.4713 59.9573 14.7993 59.584C14.1273 59.2 13.5993 58.6667 13.2153 57.984C12.8313 57.2907 12.6393 56.4907 12.6393 55.584C12.6393 54.688 12.8366 53.8933 13.2313 53.2C13.6259 52.5067 14.1646 51.9733 14.8473 51.6C15.5299 51.2267 16.2926 51.04 17.1353 51.04C17.9779 51.04 18.7406 51.2267 19.4233 51.6C20.1059 51.9733 20.6446 52.5067 21.0393 53.2C21.4339 53.8933 21.6313 54.688 21.6313 55.584C21.6313 56.48 21.4286 57.2747 21.0233 57.968C20.6179 58.6613 20.0633 59.2 19.3593 59.584C18.6659 59.9573 17.8979 60.144 17.0553 60.144ZM17.0553 58.56C17.5246 58.56 17.9619 58.448 18.3673 58.224C18.7833 58 19.1193 57.664 19.3753 57.216C19.6313 56.768 19.7593 56.224 19.7593 55.584C19.7593 54.944 19.6366 54.4053 19.3913 53.968C19.1459 53.52 18.8206 53.184 18.4153 52.96C18.0099 52.736 17.5726 52.624 17.1033 52.624C16.6339 52.624 16.1966 52.736 15.7913 52.96C15.3966 53.184 15.0819 53.52 14.8473 53.968C14.6126 54.4053 14.4953 54.944 14.4953 55.584C14.4953 56.5333 14.7353 57.2693 15.2153 57.792C15.7059 58.304 16.3193 58.56 17.0553 58.56ZM34.1346 48.88V50.368H29.4146V53.648H33.0946V55.136H29.4146V60H27.5906V48.88H34.1346ZM35.217 55.552C35.217 54.6667 35.3983 53.8827 35.761 53.2C36.1343 52.5173 36.6357 51.9893 37.265 51.616C37.905 51.232 38.609 51.04 39.377 51.04C40.0703 51.04 40.673 51.1787 41.185 51.456C41.7077 51.7227 42.1237 52.0587 42.433 52.464V51.184H44.273V60H42.433V58.688C42.1237 59.104 41.7023 59.4507 41.169 59.728C40.6357 60.0053 40.0277 60.144 39.345 60.144C38.5877 60.144 37.8943 59.952 37.265 59.568C36.6357 59.1733 36.1343 58.6293 35.761 57.936C35.3983 57.232 35.217 56.4373 35.217 55.552ZM42.433 55.584C42.433 54.976 42.305 54.448 42.049 54C41.8037 53.552 41.4783 53.2107 41.073 52.976C40.6677 52.7413 40.2303 52.624 39.761 52.624C39.2917 52.624 38.8543 52.7413 38.449 52.976C38.0437 53.2 37.713 53.536 37.457 53.984C37.2117 54.4213 37.089 54.944 37.089 55.552C37.089 56.16 37.2117 56.6933 37.457 57.152C37.713 57.6107 38.0437 57.9627 38.449 58.208C38.865 58.4427 39.3023 58.56 39.761 58.56C40.2303 58.56 40.6677 58.4427 41.073 58.208C41.4783 57.9733 41.8037 57.632 42.049 57.184C42.305 56.7253 42.433 56.192 42.433 55.584ZM50.0768 58.368L52.5728 51.184H54.5087L51.1488 60H48.9728L45.6288 51.184H47.5807L50.0768 58.368ZM59.7115 60.144C58.8795 60.144 58.1275 59.9573 57.4555 59.584C56.7835 59.2 56.2555 58.6667 55.8715 57.984C55.4875 57.2907 55.2955 56.4907 55.2955 55.584C55.2955 54.688 55.4928 53.8933 55.8875 53.2C56.2822 52.5067 56.8208 51.9733 57.5035 51.6C58.1862 51.2267 58.9488 51.04 59.7915 51.04C60.6342 51.04 61.3968 51.2267 62.0795 51.6C62.7622 51.9733 63.3008 52.5067 63.6955 53.2C64.0902 53.8933 64.2875 54.688 64.2875 55.584C64.2875 56.48 64.0848 57.2747 63.6795 57.968C63.2742 58.6613 62.7195 59.2 62.0155 59.584C61.3222 59.9573 60.5542 60.144 59.7115 60.144ZM59.7115 58.56C60.1808 58.56 60.6182 58.448 61.0235 58.224C61.4395 58 61.7755 57.664 62.0315 57.216C62.2875 56.768 62.4155 56.224 62.4155 55.584C62.4155 54.944 62.2928 54.4053 62.0475 53.968C61.8022 53.52 61.4768 53.184 61.0715 52.96C60.6662 52.736 60.2288 52.624 59.7595 52.624C59.2902 52.624 58.8528 52.736 58.4475 52.96C58.0528 53.184 57.7382 53.52 57.5035 53.968C57.2688 54.4053 57.1515 54.944 57.1515 55.584C57.1515 56.5333 57.3915 57.2693 57.8715 57.792C58.3622 58.304 58.9755 58.56 59.7115 58.56ZM67.9146 52.464C68.1813 52.016 68.5333 51.6693 68.9706 51.424C69.4186 51.168 69.9466 51.04 70.5546 51.04V52.928H70.0906C69.376 52.928 68.832 53.1093 68.4586 53.472C68.096 53.8347 67.9146 54.464 67.9146 55.36V60H66.0906V51.184H67.9146V52.464ZM73.1593 50.016C72.8286 50.016 72.5513 49.904 72.3273 49.68C72.1033 49.456 71.9913 49.1787 71.9913 48.848C71.9913 48.5173 72.1033 48.24 72.3273 48.016C72.5513 47.792 72.8286 47.68 73.1593 47.68C73.4793 47.68 73.7513 47.792 73.9753 48.016C74.1993 48.24 74.3113 48.5173 74.3113 48.848C74.3113 49.1787 74.1993 49.456 73.9753 49.68C73.7513 49.904 73.4793 50.016 73.1593 50.016ZM74.0553 51.184V60H72.2313V51.184H74.0553ZM78.578 52.672V57.552C78.578 57.8827 78.6527 58.1227 78.802 58.272C78.962 58.4107 79.2287 58.48 79.602 58.48H80.722V60H79.282C78.4607 60 77.8313 59.808 77.394 59.424C76.9567 59.04 76.738 58.416 76.738 57.552V52.672H75.698V51.184H76.738V48.992H78.578V51.184H80.722V52.672H78.578ZM90.4831 55.376C90.4831 55.7067 90.4618 56.0053 90.4191 56.272H83.6831C83.7365 56.976 83.9978 57.5413 84.4671 57.968C84.9365 58.3947 85.5125 58.608 86.1951 58.608C87.1765 58.608 87.8698 58.1973 88.2751 57.376H90.2431C89.9765 58.1867 89.4911 58.8533 88.7871 59.376C88.0938 59.888 87.2298 60.144 86.1951 60.144C85.3525 60.144 84.5951 59.9573 83.9231 59.584C83.2618 59.2 82.7391 58.6667 82.3551 57.984C81.9818 57.2907 81.7951 56.4907 81.7951 55.584C81.7951 54.6773 81.9765 53.8827 82.3391 53.2C82.7125 52.5067 83.2298 51.9733 83.8911 51.6C84.5631 51.2267 85.3311 51.04 86.1951 51.04C87.0271 51.04 87.7685 51.2213 88.4191 51.584C89.0698 51.9467 89.5765 52.4587 89.9391 53.12C90.3018 53.7707 90.4831 54.5227 90.4831 55.376ZM88.5791 54.8C88.5685 54.128 88.3285 53.5893 87.8591 53.184C87.3898 52.7787 86.8085 52.576 86.1151 52.576C85.4858 52.576 84.9471 52.7787 84.4991 53.184C84.0511 53.5787 83.7845 54.1173 83.6991 54.8H88.5791ZM95.4781 60.144C94.7848 60.144 94.1608 60.0213 93.6061 59.776C93.0621 59.52 92.6301 59.1787 92.3101 58.752C91.9901 58.3147 91.8195 57.8293 91.7981 57.296H93.6861C93.7181 57.6693 93.8941 57.984 94.2141 58.24C94.5448 58.4853 94.9555 58.608 95.4461 58.608C95.9581 58.608 96.3528 58.512 96.6301 58.32C96.9181 58.1173 97.0621 57.8613 97.0621 57.552C97.0621 57.2213 96.9021 56.976 96.5821 56.816C96.2728 56.656 95.7768 56.48 95.0941 56.288C94.4328 56.1067 93.8941 55.9307 93.4781 55.76C93.0621 55.5893 92.6995 55.328 92.3901 54.976C92.0915 54.624 91.9421 54.16 91.9421 53.584C91.9421 53.1147 92.0808 52.688 92.3581 52.304C92.6355 51.9093 93.0301 51.6 93.5421 51.376C94.0648 51.152 94.6621 51.04 95.3341 51.04C96.3368 51.04 97.1421 51.296 97.7501 51.808C98.3688 52.3093 98.6995 52.9973 98.7421 53.872H96.9181C96.8861 53.4773 96.7261 53.1627 96.4381 52.928C96.1501 52.6933 95.7608 52.576 95.2701 52.576C94.7901 52.576 94.4221 52.6667 94.1661 52.848C93.9101 53.0293 93.7821 53.2693 93.7821 53.568C93.7821 53.8027 93.8675 54 94.0381 54.16C94.2088 54.32 94.4168 54.448 94.6621 54.544C94.9075 54.6293 95.2701 54.7413 95.7501 54.88C96.3901 55.0507 96.9128 55.2267 97.3181 55.408C97.7341 55.5787 98.0915 55.8347 98.3901 56.176C98.6888 56.5173 98.8435 56.9707 98.8541 57.536C98.8541 58.0373 98.7155 58.4853 98.4381 58.88C98.1608 59.2747 97.7661 59.584 97.2541 59.808C96.7528 60.032 96.1608 60.144 95.4781 60.144Z" fill="#A5A5AB"/>
<defs>
<clipPath id="clip0_4260_842">
<rect width="32" height="32" fill="white" transform="translate(34.5)"/>
</clipPath>
</defs>
</svg>
