<svg width="37" height="36" viewBox="0 0 37 36" fill="none" xmlns="http://www.w3.org/2000/svg">
<path d="M18.125 4.5C25.5808 4.5 31.625 10.5442 31.625 18C31.625 25.4558 25.5808 31.5 18.125 31.5C10.6692 31.5 4.625 25.4558 4.625 18C4.625 10.5442 10.6692 4.5 18.125 4.5ZM23.3223 10.125C22.701 10.125 22.1973 10.6287 22.1973 11.25V12.1533C21.0434 11.3482 19.6397 10.875 18.125 10.875C14.19 10.875 11 14.065 11 18C11 21.935 14.19 25.125 18.125 25.125C21.4465 25.125 24.2345 22.8531 25.0254 19.7803C25.1802 19.1787 24.8183 18.5651 24.2168 18.4102C23.6151 18.2553 23.0015 18.618 22.8467 19.2197C22.3054 21.3225 20.395 22.875 18.125 22.875C15.4326 22.875 13.25 20.6924 13.25 18C13.25 15.3076 15.4326 13.125 18.125 13.125C19.3596 13.125 20.4879 13.5838 21.3477 14.3418L20.0977 14.6602C19.4955 14.8134 19.1319 15.4252 19.2852 16.0273C19.4384 16.6295 20.0502 16.9931 20.6523 16.8398L23.5996 16.0898C24.0982 15.963 24.4473 15.5145 24.4473 15V11.25C24.4473 10.6287 23.9436 10.125 23.3223 10.125Z" fill="#9CADA6"/>
</svg>
