<svg width="31" height="30" viewBox="0 0 31 30" fill="none" xmlns="http://www.w3.org/2000/svg">
<path d="M19.4561 12.5C18.5916 11.0055 16.9757 10 15.125 10C12.3636 10 10.125 12.2386 10.125 15C10.125 17.7614 12.3636 20 15.125 20C17.4548 20 19.4124 18.4065 19.9675 16.25M19.4561 12.5V9.375M19.4561 12.5L17 13.125" stroke="#4A4C56" stroke-width="1.5" stroke-linecap="round" stroke-linejoin="round"/>
<path d="M16.375 3.75H13.875C8.35215 3.75 3.875 8.22715 3.875 13.75V16.25C3.875 21.7728 8.35215 26.25 13.875 26.25H16.375C21.8978 26.25 26.375 21.7728 26.375 16.25V13.75C26.375 8.22715 21.8978 3.75 16.375 3.75Z" stroke="#4A4C56" stroke-width="1.5" stroke-linecap="round" stroke-linejoin="round"/>
</svg>
