<svg width="29" height="28" viewBox="0 0 29 28" fill="none" xmlns="http://www.w3.org/2000/svg">
<path d="M24.5762 18.3407L23.9366 17.949V17.949L24.5762 18.3407ZM23.4626 20.1593L24.1022 20.551H24.1022L23.4626 20.1593ZM4.17377 9.65932L3.53416 9.26766H3.53416L4.17377 9.65932ZM5.28741 7.84067L5.92702 8.23233V8.23233L5.28741 7.84067ZM8.32993 7.07201L8.68852 6.41329L8.68852 6.41329L8.32993 7.07201ZM4.98901 12.528L4.63043 13.1867H4.63043L4.98901 12.528ZM20.4201 20.928L20.0615 21.5867L20.0615 21.5867L20.4201 20.928ZM23.761 15.472L23.4024 16.1307V16.1307L23.761 15.472ZM5.28741 20.1593L4.6478 20.551H4.6478L5.28741 20.1593ZM4.17377 18.3407L4.81338 17.949H4.81338L4.17377 18.3407ZM23.4626 7.84068L24.1022 7.44902L24.1022 7.44902L23.4626 7.84068ZM24.5762 9.65933L23.9366 10.051V10.051L24.5762 9.65933ZM23.761 12.528L24.1196 13.1867L23.761 12.528ZM20.4201 7.07203L20.7786 7.73075L20.4201 7.07203ZM4.98901 15.472L5.34759 16.1308H5.34759L4.98901 15.472ZM8.32993 20.928L7.97136 20.2693L7.97135 20.2693L8.32993 20.928ZM20.3017 7.13647L19.9431 6.47775V6.47775L20.3017 7.13647ZM8.44833 7.13646L8.08975 7.79519L8.08975 7.79519L8.44833 7.13646ZM20.3017 20.8635L20.6603 20.2048L20.6603 20.2048L20.3017 20.8635ZM8.44833 20.8635L8.80691 21.5223L8.80691 21.5223L8.44833 20.8635ZM13.2614 3.5V4.25H15.4886V3.5V2.75H13.2614V3.5ZM15.4886 24.5V23.75H13.2614V24.5V25.25H15.4886V24.5ZM13.2614 24.5V23.75C12.4033 23.75 11.7841 23.1046 11.7841 22.4H11.0341H10.2841C10.2841 24.015 11.6592 25.25 13.2614 25.25V24.5ZM17.7159 22.4H16.9659C16.9659 23.1046 16.3467 23.75 15.4886 23.75V24.5V25.25C17.0908 25.25 18.4659 24.015 18.4659 22.4H17.7159ZM15.4886 3.5V4.25C16.3467 4.25 16.9659 4.89538 16.9659 5.6H17.7159H18.4659C18.4659 3.98502 17.0908 2.75 15.4886 2.75V3.5ZM13.2614 3.5V2.75C11.6592 2.75 10.2841 3.98502 10.2841 5.6H11.0341H11.7841C11.7841 4.89538 12.4033 4.25 13.2614 4.25V3.5ZM24.5762 18.3407L23.9366 17.949L22.823 19.7677L23.4626 20.1593L24.1022 20.551L25.2158 18.7323L24.5762 18.3407ZM4.17377 9.65932L4.81338 10.051L5.92702 8.23233L5.28741 7.84067L4.6478 7.449L3.53416 9.26766L4.17377 9.65932ZM5.28741 7.84067L5.92702 8.23233C6.32353 7.58481 7.23978 7.3325 7.97135 7.73074L8.32993 7.07201L8.68852 6.41329C7.2895 5.65172 5.48139 6.08769 4.6478 7.449L5.28741 7.84067ZM4.98901 12.528L5.3476 11.8692C4.63942 11.4837 4.43412 10.6703 4.81338 10.051L4.17377 9.65932L3.53416 9.26766C2.68334 10.6571 3.20802 12.4124 4.63043 13.1867L4.98901 12.528ZM23.4626 20.1593L22.823 19.7677C22.4265 20.4152 21.5102 20.6675 20.7786 20.2692L20.4201 20.928L20.0615 21.5867C21.4605 22.3483 23.2686 21.9123 24.1022 20.551L23.4626 20.1593ZM24.5762 18.3407L25.2158 18.7323C26.0667 17.3429 25.542 15.5876 24.1196 14.8133L23.761 15.472L23.4024 16.1307C24.1106 16.5162 24.3159 17.3296 23.9366 17.949L24.5762 18.3407ZM5.28741 20.1593L5.92702 19.7677L4.81338 17.949L4.17377 18.3407L3.53416 18.7323L4.6478 20.551L5.28741 20.1593ZM23.4626 7.84068L22.823 8.23234L23.9366 10.051L24.5762 9.65933L25.2158 9.26767L24.1022 7.44902L23.4626 7.84068ZM24.5762 9.65933L23.9366 10.051C24.3159 10.6704 24.1106 11.4838 23.4024 11.8693L23.761 12.528L24.1196 13.1867C25.542 12.4124 26.0667 10.6571 25.2158 9.26767L24.5762 9.65933ZM20.4201 7.07203L20.7786 7.73075C21.5102 7.33252 22.4265 7.58482 22.823 8.23234L23.4626 7.84068L24.1022 7.44902C23.2686 6.08771 21.4605 5.65174 20.0615 6.4133L20.4201 7.07203ZM4.17377 18.3407L4.81338 17.949C4.43411 17.3296 4.63942 16.5163 5.34759 16.1308L4.98901 15.472L4.63043 14.8133C3.20802 15.5876 2.68333 17.3429 3.53416 18.7323L4.17377 18.3407ZM5.28741 20.1593L4.6478 20.551C5.48139 21.9123 7.2895 22.3483 8.68852 21.5867L8.32993 20.928L7.97135 20.2693C7.23978 20.6675 6.32352 20.4152 5.92702 19.7677L5.28741 20.1593ZM20.3017 7.13647L20.6603 7.7952L20.7786 7.73075L20.4201 7.07203L20.0615 6.4133L19.9431 6.47775L20.3017 7.13647ZM8.32993 7.07201L7.97135 7.73074L8.08975 7.79519L8.44833 7.13646L8.80692 6.47774L8.68852 6.41329L8.32993 7.07201ZM20.4201 20.928L20.7787 20.2692L20.6603 20.2048L20.3017 20.8635L19.9431 21.5223L20.0615 21.5867L20.4201 20.928ZM8.44833 20.8635L8.08975 20.2048L7.97136 20.2693L8.32993 20.928L8.68851 21.5867L8.80691 21.5223L8.44833 20.8635ZM4.98901 12.528L4.63043 13.1867C5.27479 13.5375 5.27479 14.4625 4.63043 14.8133L4.98901 15.472L5.34759 16.1308C7.03573 15.2118 7.03574 12.7882 5.3476 11.8692L4.98901 12.528ZM8.44833 20.8635L8.80691 21.5223C9.47284 21.1598 10.2841 21.6418 10.2841 22.4H11.0341H11.7841C11.7841 20.5038 9.75521 19.2982 8.08975 20.2048L8.44833 20.8635ZM17.7159 22.4H18.4659C18.4659 21.6418 19.2772 21.1597 19.9431 21.5223L20.3017 20.8635L20.6603 20.2048C18.9948 19.2982 16.9659 20.5038 16.9659 22.4H17.7159ZM23.761 15.472L24.1196 14.8133C23.4752 14.4625 23.4752 13.5375 24.1196 13.1867L23.761 12.528L23.4024 11.8693C21.7143 12.7882 21.7143 15.2118 23.4024 16.1307L23.761 15.472ZM8.44833 7.13646L8.08975 7.79519C9.75521 8.70179 11.7841 7.49623 11.7841 5.6H11.0341H10.2841C10.2841 6.3582 9.47284 6.84024 8.80692 6.47774L8.44833 7.13646ZM20.3017 7.13647L19.9431 6.47775C19.2772 6.84025 18.4659 6.35821 18.4659 5.6H17.7159H16.9659C16.9659 7.49623 18.9948 8.70181 20.6603 7.7952L20.3017 7.13647ZM17.875 14H17.125C17.125 15.5188 15.8938 16.75 14.375 16.75V17.5V18.25C16.7222 18.25 18.625 16.3472 18.625 14H17.875ZM14.375 17.5V16.75C12.8562 16.75 11.625 15.5188 11.625 14H10.875H10.125C10.125 16.3472 12.0278 18.25 14.375 18.25V17.5ZM10.875 14H11.625C11.625 12.4812 12.8562 11.25 14.375 11.25V10.5V9.75C12.0278 9.75 10.125 11.6528 10.125 14H10.875ZM14.375 10.5V11.25C15.8938 11.25 17.125 12.4812 17.125 14H17.875H18.625C18.625 11.6528 16.7222 9.75 14.375 9.75V10.5Z" fill="#4A4C56"/>
</svg>
