<svg width="33" height="32" viewBox="0 0 33 32" fill="none" xmlns="http://www.w3.org/2000/svg">
<path fill-rule="evenodd" clip-rule="evenodd" d="M15.1023 4H17.6477C19.0536 4 20.1932 5.07452 20.1932 6.4C20.1932 7.91682 21.8161 8.88118 23.1483 8.15597L23.2836 8.08232C24.5011 7.41958 26.0579 7.81288 26.7608 8.96078L28.0335 11.0392C28.7365 12.1871 28.3193 13.655 27.1018 14.3177C25.769 15.0432 25.769 16.9568 27.1018 17.6823C28.3193 18.345 28.7365 19.8129 28.0335 20.9608L26.7608 23.0392C26.0579 24.1871 24.5011 24.5804 23.2836 23.9177L23.1483 23.844C21.8161 23.1188 20.1932 24.0832 20.1932 25.6C20.1932 26.9255 19.0536 28 17.6477 28H15.1023C13.6964 28 12.5568 26.9255 12.5568 25.6C12.5568 24.0832 10.9339 23.1188 9.60167 23.844L9.46635 23.9177C8.24888 24.5804 6.69209 24.1871 5.98918 23.0392L4.71645 20.9608C4.01354 19.8129 4.43068 18.3451 5.64816 17.6823C6.98101 16.9568 6.98101 15.0432 5.64816 14.3177C4.43068 13.6549 4.01354 12.1871 4.71645 11.0392L5.98919 8.96076C6.6921 7.81286 8.24888 7.41956 9.46635 8.0823L9.60167 8.15596C10.9339 8.88116 12.5568 7.91682 12.5568 6.4C12.5568 5.07452 13.6964 4 15.1023 4ZM16.375 20C18.5842 20 20.375 18.2091 20.375 16C20.375 13.7909 18.5842 12 16.375 12C14.1659 12 12.375 13.7909 12.375 16C12.375 18.2091 14.1659 20 16.375 20Z" fill="#9CADA6"/>
</svg>
