<svg width="40" height="40" viewBox="0 0 40 40" fill="none" xmlns="http://www.w3.org/2000/svg">
<rect width="40" height="40" rx="20" fill="#ECEFF3"/>
<path d="M16.385 22.3212C15.4419 22.8828 12.9689 24.0296 14.4751 25.4645C15.2109 26.1655 16.0303 26.6668 17.0606 26.6668H22.9394C23.9697 26.6668 24.7891 26.1655 25.5249 25.4645C27.0311 24.0296 24.5581 22.8828 23.615 22.3212C21.4032 21.0043 18.5968 21.0043 16.385 22.3212Z" stroke="#4B4B4B" stroke-width="1.5" stroke-linecap="round" stroke-linejoin="round"/>
<path d="M23 16.3335C23 17.9904 21.6569 19.3335 20 19.3335C18.3431 19.3335 17 17.9904 17 16.3335C17 14.6766 18.3431 13.3335 20 13.3335C21.6569 13.3335 23 14.6766 23 16.3335Z" stroke="#4B4B4B" stroke-width="1.5"/>
</svg>
