<svg width="16" height="20" viewBox="0 0 16 20" fill="none" xmlns="http://www.w3.org/2000/svg">
<path d="M15 5V16C15 18.2091 13.2091 20 11 20H5C2.79086 20 1 18.2091 1 16V5H15ZM6 8.25C5.58579 8.25 5.25 8.58579 5.25 9V16C5.25 16.4142 5.58579 16.75 6 16.75C6.41421 16.75 6.75 16.4142 6.75 16V9C6.75 8.58579 6.41421 8.25 6 8.25ZM10 8.25C9.58579 8.25 9.25 8.58579 9.25 9V16C9.25 16.4142 9.58579 16.75 10 16.75C10.4142 16.75 10.75 16.4142 10.75 16V9C10.75 8.58579 10.4142 8.25 10 8.25ZM8.92969 0C9.59837 1.84288e-05 10.2228 0.334243 10.5938 0.890625L11.5 2.25H15.25C15.6642 2.25 16 2.58579 16 3C16 3.41421 15.6642 3.75 15.25 3.75H0.75C0.335786 3.75 0 3.41421 0 3C0 2.58579 0.335786 2.25 0.75 2.25H4.5L5.40625 0.890625C5.77717 0.334243 6.40163 1.84288e-05 7.07031 0H8.92969Z" fill="#EB3D4D"/>
</svg>
